<mxfile host="app.diagrams.net" modified="2024-03-05T03:17:03.562Z" agent="Mozilla/5.0 (Windows NT 10.0; Win64; x64) AppleWebKit/537.36 (KHTML, like Gecko) Chrome/122.0.0.0 Safari/537.36" etag="PJru_7M_8Y_cQj0o84QS" version="22.1.18" type="github">
  <diagram id="C5RBs43oDa-KdzZeNtuy" name="Page-1">
    <mxGraphModel dx="3559" dy="2316" grid="1" gridSize="10" guides="1" tooltips="1" connect="1" arrows="1" fold="1" page="1" pageScale="1" pageWidth="827" pageHeight="1169" math="0" shadow="0">
      <root>
        <mxCell id="WIyWlLk6GJQsqaUBKTNV-0" />
        <mxCell id="WIyWlLk6GJQsqaUBKTNV-1" parent="WIyWlLk6GJQsqaUBKTNV-0" />
        <mxCell id="2mogpoPURVk9opXqdCTS-30" style="edgeStyle=orthogonalEdgeStyle;rounded=0;orthogonalLoop=1;jettySize=auto;html=1;exitX=0.5;exitY=1;exitDx=0;exitDy=0;" edge="1" parent="WIyWlLk6GJQsqaUBKTNV-1" source="WIyWlLk6GJQsqaUBKTNV-3" target="2mogpoPURVk9opXqdCTS-0">
          <mxGeometry relative="1" as="geometry" />
        </mxCell>
        <mxCell id="WIyWlLk6GJQsqaUBKTNV-3" value="商品详情页" style="rounded=1;whiteSpace=wrap;html=1;fontSize=12;glass=0;strokeWidth=1;shadow=0;" parent="WIyWlLk6GJQsqaUBKTNV-1" vertex="1">
          <mxGeometry x="160" y="20" width="120" height="40" as="geometry" />
        </mxCell>
        <mxCell id="2mogpoPURVk9opXqdCTS-31" style="edgeStyle=orthogonalEdgeStyle;rounded=0;orthogonalLoop=1;jettySize=auto;html=1;exitX=0.5;exitY=1;exitDx=0;exitDy=0;entryX=0.5;entryY=0;entryDx=0;entryDy=0;" edge="1" parent="WIyWlLk6GJQsqaUBKTNV-1" source="2mogpoPURVk9opXqdCTS-0" target="2mogpoPURVk9opXqdCTS-1">
          <mxGeometry relative="1" as="geometry" />
        </mxCell>
        <mxCell id="2mogpoPURVk9opXqdCTS-0" value="点击立即购买按钮" style="rounded=1;whiteSpace=wrap;html=1;fontSize=12;glass=0;strokeWidth=1;shadow=0;" vertex="1" parent="WIyWlLk6GJQsqaUBKTNV-1">
          <mxGeometry x="160" y="80" width="120" height="40" as="geometry" />
        </mxCell>
        <mxCell id="2mogpoPURVk9opXqdCTS-32" style="edgeStyle=orthogonalEdgeStyle;rounded=0;orthogonalLoop=1;jettySize=auto;html=1;exitX=0.5;exitY=1;exitDx=0;exitDy=0;entryX=0.5;entryY=0;entryDx=0;entryDy=0;" edge="1" parent="WIyWlLk6GJQsqaUBKTNV-1" source="2mogpoPURVk9opXqdCTS-1" target="2mogpoPURVk9opXqdCTS-3">
          <mxGeometry relative="1" as="geometry" />
        </mxCell>
        <mxCell id="2mogpoPURVk9opXqdCTS-1" value="调用下单接口&lt;br&gt;/apiEeopApp/mallBusinessApp/insertOrder" style="rounded=1;whiteSpace=wrap;html=1;fontSize=12;glass=0;strokeWidth=1;shadow=0;" vertex="1" parent="WIyWlLk6GJQsqaUBKTNV-1">
          <mxGeometry x="160" y="150" width="120" height="40" as="geometry" />
        </mxCell>
        <mxCell id="2mogpoPURVk9opXqdCTS-34" style="edgeStyle=orthogonalEdgeStyle;rounded=0;orthogonalLoop=1;jettySize=auto;html=1;exitX=0.5;exitY=1;exitDx=0;exitDy=0;entryX=0.5;entryY=0;entryDx=0;entryDy=0;" edge="1" parent="WIyWlLk6GJQsqaUBKTNV-1" source="2mogpoPURVk9opXqdCTS-3" target="2mogpoPURVk9opXqdCTS-4">
          <mxGeometry relative="1" as="geometry" />
        </mxCell>
        <mxCell id="2mogpoPURVk9opXqdCTS-3" value="拉起支付弹窗" style="rounded=1;whiteSpace=wrap;html=1;fontSize=12;glass=0;strokeWidth=1;shadow=0;" vertex="1" parent="WIyWlLk6GJQsqaUBKTNV-1">
          <mxGeometry x="160" y="230" width="120" height="40" as="geometry" />
        </mxCell>
        <mxCell id="2mogpoPURVk9opXqdCTS-35" style="edgeStyle=orthogonalEdgeStyle;rounded=0;orthogonalLoop=1;jettySize=auto;html=1;entryX=0.5;entryY=0;entryDx=0;entryDy=0;exitX=0.5;exitY=1;exitDx=0;exitDy=0;" edge="1" parent="WIyWlLk6GJQsqaUBKTNV-1" source="2mogpoPURVk9opXqdCTS-4" target="2mogpoPURVk9opXqdCTS-5">
          <mxGeometry relative="1" as="geometry">
            <mxPoint x="220" y="370" as="sourcePoint" />
          </mxGeometry>
        </mxCell>
        <mxCell id="2mogpoPURVk9opXqdCTS-4" value="选择支付方式" style="rounded=1;whiteSpace=wrap;html=1;fontSize=12;glass=0;strokeWidth=1;shadow=0;" vertex="1" parent="WIyWlLk6GJQsqaUBKTNV-1">
          <mxGeometry x="160" y="300" width="120" height="40" as="geometry" />
        </mxCell>
        <mxCell id="2mogpoPURVk9opXqdCTS-37" style="edgeStyle=orthogonalEdgeStyle;rounded=0;orthogonalLoop=1;jettySize=auto;html=1;exitX=0.5;exitY=1;exitDx=0;exitDy=0;entryX=0.5;entryY=0;entryDx=0;entryDy=0;" edge="1" parent="WIyWlLk6GJQsqaUBKTNV-1" source="2mogpoPURVk9opXqdCTS-5" target="2mogpoPURVk9opXqdCTS-9">
          <mxGeometry relative="1" as="geometry" />
        </mxCell>
        <mxCell id="2mogpoPURVk9opXqdCTS-5" value="微信" style="rounded=1;whiteSpace=wrap;html=1;fontSize=12;glass=0;strokeWidth=1;shadow=0;" vertex="1" parent="WIyWlLk6GJQsqaUBKTNV-1">
          <mxGeometry x="-30" y="410" width="120" height="40" as="geometry" />
        </mxCell>
        <mxCell id="2mogpoPURVk9opXqdCTS-38" style="edgeStyle=orthogonalEdgeStyle;rounded=0;orthogonalLoop=1;jettySize=auto;html=1;exitX=0.5;exitY=1;exitDx=0;exitDy=0;" edge="1" parent="WIyWlLk6GJQsqaUBKTNV-1" source="2mogpoPURVk9opXqdCTS-7" target="2mogpoPURVk9opXqdCTS-14">
          <mxGeometry relative="1" as="geometry" />
        </mxCell>
        <mxCell id="2mogpoPURVk9opXqdCTS-7" value="支付宝" style="rounded=1;whiteSpace=wrap;html=1;fontSize=12;glass=0;strokeWidth=1;shadow=0;" vertex="1" parent="WIyWlLk6GJQsqaUBKTNV-1">
          <mxGeometry x="344" y="410" width="120" height="40" as="geometry" />
        </mxCell>
        <mxCell id="2mogpoPURVk9opXqdCTS-40" style="edgeStyle=orthogonalEdgeStyle;rounded=0;orthogonalLoop=1;jettySize=auto;html=1;exitX=0.5;exitY=1;exitDx=0;exitDy=0;entryX=0.5;entryY=0;entryDx=0;entryDy=0;" edge="1" parent="WIyWlLk6GJQsqaUBKTNV-1" source="2mogpoPURVk9opXqdCTS-8" target="2mogpoPURVk9opXqdCTS-11">
          <mxGeometry relative="1" as="geometry" />
        </mxCell>
        <mxCell id="2mogpoPURVk9opXqdCTS-41" style="edgeStyle=orthogonalEdgeStyle;rounded=0;orthogonalLoop=1;jettySize=auto;html=1;exitX=0.5;exitY=1;exitDx=0;exitDy=0;" edge="1" parent="WIyWlLk6GJQsqaUBKTNV-1" source="2mogpoPURVk9opXqdCTS-8" target="2mogpoPURVk9opXqdCTS-12">
          <mxGeometry relative="1" as="geometry" />
        </mxCell>
        <mxCell id="2mogpoPURVk9opXqdCTS-8" value="无openid" style="rhombus;whiteSpace=wrap;html=1;shadow=0;fontFamily=Helvetica;fontSize=12;align=center;strokeWidth=1;spacing=6;spacingTop=-4;" vertex="1" parent="WIyWlLk6GJQsqaUBKTNV-1">
          <mxGeometry x="-10" y="630" width="100" height="80" as="geometry" />
        </mxCell>
        <mxCell id="2mogpoPURVk9opXqdCTS-9" value="后端接口调用&lt;br&gt;查询当前用户openid" style="rounded=1;whiteSpace=wrap;html=1;fontSize=12;glass=0;strokeWidth=1;shadow=0;" vertex="1" parent="WIyWlLk6GJQsqaUBKTNV-1">
          <mxGeometry x="-30" y="520" width="120" height="40" as="geometry" />
        </mxCell>
        <mxCell id="2mogpoPURVk9opXqdCTS-51" style="edgeStyle=orthogonalEdgeStyle;rounded=0;orthogonalLoop=1;jettySize=auto;html=1;entryX=0.5;entryY=0;entryDx=0;entryDy=0;exitX=0.5;exitY=1;exitDx=0;exitDy=0;" edge="1" parent="WIyWlLk6GJQsqaUBKTNV-1" source="2mogpoPURVk9opXqdCTS-10" target="2mogpoPURVk9opXqdCTS-19">
          <mxGeometry relative="1" as="geometry">
            <mxPoint x="270" y="1200" as="sourcePoint" />
          </mxGeometry>
        </mxCell>
        <mxCell id="2mogpoPURVk9opXqdCTS-52" style="edgeStyle=orthogonalEdgeStyle;rounded=0;orthogonalLoop=1;jettySize=auto;html=1;exitX=0.5;exitY=1;exitDx=0;exitDy=0;entryX=0.5;entryY=0;entryDx=0;entryDy=0;" edge="1" parent="WIyWlLk6GJQsqaUBKTNV-1" source="2mogpoPURVk9opXqdCTS-10" target="2mogpoPURVk9opXqdCTS-20">
          <mxGeometry relative="1" as="geometry" />
        </mxCell>
        <mxCell id="2mogpoPURVk9opXqdCTS-10" value="调用支付订单接口&lt;br&gt;/apiEeopApp/mallBusinessApp/payOrder" style="rounded=1;whiteSpace=wrap;html=1;fontSize=12;glass=0;strokeWidth=1;shadow=0;" vertex="1" parent="WIyWlLk6GJQsqaUBKTNV-1">
          <mxGeometry x="210" y="1120" width="120" height="40" as="geometry" />
        </mxCell>
        <mxCell id="2mogpoPURVk9opXqdCTS-45" style="edgeStyle=orthogonalEdgeStyle;rounded=0;orthogonalLoop=1;jettySize=auto;html=1;exitX=0.5;exitY=1;exitDx=0;exitDy=0;entryX=0.5;entryY=0;entryDx=0;entryDy=0;" edge="1" parent="WIyWlLk6GJQsqaUBKTNV-1" source="2mogpoPURVk9opXqdCTS-11" target="2mogpoPURVk9opXqdCTS-13">
          <mxGeometry relative="1" as="geometry" />
        </mxCell>
        <mxCell id="2mogpoPURVk9opXqdCTS-11" value="小程序获取authcode&lt;br&gt;&lt;div&gt;uni.login({&lt;/div&gt;&lt;div&gt;&amp;nbsp; &amp;nbsp; &amp;nbsp; &amp;nbsp; provider: &quot;weixin&quot;,&lt;/div&gt;&lt;div&gt;&amp;nbsp; &amp;nbsp; &amp;nbsp; &amp;nbsp; success: function (loginRes);&lt;/div&gt;&lt;div&gt;&amp;nbsp; &amp;nbsp; &amp;nbsp; &amp;nbsp; &amp;nbsp; console.log(loginRes.code);&lt;/div&gt;&lt;div&gt;&amp;nbsp; &amp;nbsp; &amp;nbsp; &amp;nbsp; },&lt;/div&gt;&lt;div&gt;&amp;nbsp; &amp;nbsp; &amp;nbsp; });&lt;/div&gt;" style="rounded=1;whiteSpace=wrap;html=1;fontSize=12;glass=0;strokeWidth=1;shadow=0;" vertex="1" parent="WIyWlLk6GJQsqaUBKTNV-1">
          <mxGeometry x="-220" y="810" width="200" height="110" as="geometry" />
        </mxCell>
        <mxCell id="2mogpoPURVk9opXqdCTS-46" style="edgeStyle=orthogonalEdgeStyle;rounded=0;orthogonalLoop=1;jettySize=auto;html=1;exitX=0.5;exitY=1;exitDx=0;exitDy=0;" edge="1" parent="WIyWlLk6GJQsqaUBKTNV-1" source="2mogpoPURVk9opXqdCTS-12">
          <mxGeometry relative="1" as="geometry">
            <mxPoint x="10" y="1000" as="targetPoint" />
          </mxGeometry>
        </mxCell>
        <mxCell id="2mogpoPURVk9opXqdCTS-12" value="app获取authcode" style="rounded=1;whiteSpace=wrap;html=1;fontSize=12;glass=0;strokeWidth=1;shadow=0;" vertex="1" parent="WIyWlLk6GJQsqaUBKTNV-1">
          <mxGeometry x="20" y="810" width="146" height="60" as="geometry" />
        </mxCell>
        <mxCell id="2mogpoPURVk9opXqdCTS-49" style="edgeStyle=orthogonalEdgeStyle;rounded=0;orthogonalLoop=1;jettySize=auto;html=1;exitX=0.5;exitY=1;exitDx=0;exitDy=0;entryX=0.5;entryY=0;entryDx=0;entryDy=0;" edge="1" parent="WIyWlLk6GJQsqaUBKTNV-1" source="2mogpoPURVk9opXqdCTS-13" target="2mogpoPURVk9opXqdCTS-10">
          <mxGeometry relative="1" as="geometry" />
        </mxCell>
        <mxCell id="2mogpoPURVk9opXqdCTS-13" value="后端接口调用绑定openid" style="rounded=1;whiteSpace=wrap;html=1;fontSize=12;glass=0;strokeWidth=1;shadow=0;" vertex="1" parent="WIyWlLk6GJQsqaUBKTNV-1">
          <mxGeometry x="-50" y="1000" width="120" height="40" as="geometry" />
        </mxCell>
        <mxCell id="2mogpoPURVk9opXqdCTS-42" style="edgeStyle=orthogonalEdgeStyle;rounded=0;orthogonalLoop=1;jettySize=auto;html=1;exitX=0.5;exitY=1;exitDx=0;exitDy=0;entryX=0.5;entryY=0;entryDx=0;entryDy=0;" edge="1" parent="WIyWlLk6GJQsqaUBKTNV-1" source="2mogpoPURVk9opXqdCTS-14" target="2mogpoPURVk9opXqdCTS-15">
          <mxGeometry relative="1" as="geometry" />
        </mxCell>
        <mxCell id="2mogpoPURVk9opXqdCTS-14" value="后端接口调用&lt;br&gt;查询当前用户userid" style="rounded=1;whiteSpace=wrap;html=1;fontSize=12;glass=0;strokeWidth=1;shadow=0;" vertex="1" parent="WIyWlLk6GJQsqaUBKTNV-1">
          <mxGeometry x="344" y="520" width="120" height="40" as="geometry" />
        </mxCell>
        <mxCell id="2mogpoPURVk9opXqdCTS-43" style="edgeStyle=orthogonalEdgeStyle;rounded=0;orthogonalLoop=1;jettySize=auto;html=1;entryX=0.5;entryY=0;entryDx=0;entryDy=0;" edge="1" parent="WIyWlLk6GJQsqaUBKTNV-1" source="2mogpoPURVk9opXqdCTS-15" target="2mogpoPURVk9opXqdCTS-16">
          <mxGeometry relative="1" as="geometry" />
        </mxCell>
        <mxCell id="2mogpoPURVk9opXqdCTS-15" value="无userid" style="rhombus;whiteSpace=wrap;html=1;shadow=0;fontFamily=Helvetica;fontSize=12;align=center;strokeWidth=1;spacing=6;spacingTop=-4;" vertex="1" parent="WIyWlLk6GJQsqaUBKTNV-1">
          <mxGeometry x="350" y="620" width="100" height="80" as="geometry" />
        </mxCell>
        <mxCell id="2mogpoPURVk9opXqdCTS-47" style="edgeStyle=orthogonalEdgeStyle;rounded=0;orthogonalLoop=1;jettySize=auto;html=1;exitX=0.5;exitY=1;exitDx=0;exitDy=0;" edge="1" parent="WIyWlLk6GJQsqaUBKTNV-1" source="2mogpoPURVk9opXqdCTS-16" target="2mogpoPURVk9opXqdCTS-18">
          <mxGeometry relative="1" as="geometry" />
        </mxCell>
        <mxCell id="2mogpoPURVk9opXqdCTS-16" value="小程序获取authcode&lt;br&gt;&lt;div&gt;uni.login({&lt;/div&gt;&lt;div&gt;&amp;nbsp; &amp;nbsp; &amp;nbsp; &amp;nbsp; provider: &quot;alipay&quot;,&lt;/div&gt;&lt;div&gt;&amp;nbsp; &amp;nbsp; &amp;nbsp; &amp;nbsp; success: function (loginRes);&lt;/div&gt;&lt;div&gt;&amp;nbsp; &amp;nbsp; &amp;nbsp; &amp;nbsp; &amp;nbsp; console.log(loginRes.code);&lt;/div&gt;&lt;div&gt;&amp;nbsp; &amp;nbsp; &amp;nbsp; &amp;nbsp; },&lt;/div&gt;&lt;div&gt;&amp;nbsp; &amp;nbsp; &amp;nbsp; });&lt;/div&gt;" style="rounded=1;whiteSpace=wrap;html=1;fontSize=12;glass=0;strokeWidth=1;shadow=0;" vertex="1" parent="WIyWlLk6GJQsqaUBKTNV-1">
          <mxGeometry x="304" y="800" width="200" height="110" as="geometry" />
        </mxCell>
        <mxCell id="2mogpoPURVk9opXqdCTS-48" style="edgeStyle=orthogonalEdgeStyle;rounded=0;orthogonalLoop=1;jettySize=auto;html=1;exitX=0.5;exitY=1;exitDx=0;exitDy=0;" edge="1" parent="WIyWlLk6GJQsqaUBKTNV-1" source="2mogpoPURVk9opXqdCTS-17">
          <mxGeometry relative="1" as="geometry">
            <mxPoint x="500" y="990" as="targetPoint" />
          </mxGeometry>
        </mxCell>
        <mxCell id="2mogpoPURVk9opXqdCTS-17" value="app获取authcode" style="rounded=1;whiteSpace=wrap;html=1;fontSize=12;glass=0;strokeWidth=1;shadow=0;" vertex="1" parent="WIyWlLk6GJQsqaUBKTNV-1">
          <mxGeometry x="590" y="800" width="146" height="60" as="geometry" />
        </mxCell>
        <mxCell id="2mogpoPURVk9opXqdCTS-50" style="edgeStyle=orthogonalEdgeStyle;rounded=0;orthogonalLoop=1;jettySize=auto;html=1;exitX=0.5;exitY=1;exitDx=0;exitDy=0;entryX=0.5;entryY=0;entryDx=0;entryDy=0;" edge="1" parent="WIyWlLk6GJQsqaUBKTNV-1" source="2mogpoPURVk9opXqdCTS-18" target="2mogpoPURVk9opXqdCTS-10">
          <mxGeometry relative="1" as="geometry" />
        </mxCell>
        <mxCell id="2mogpoPURVk9opXqdCTS-18" value="后端接口调用绑定userid" style="rounded=1;whiteSpace=wrap;html=1;fontSize=12;glass=0;strokeWidth=1;shadow=0;" vertex="1" parent="WIyWlLk6GJQsqaUBKTNV-1">
          <mxGeometry x="440" y="990" width="120" height="40" as="geometry" />
        </mxCell>
        <mxCell id="2mogpoPURVk9opXqdCTS-53" style="edgeStyle=orthogonalEdgeStyle;rounded=0;orthogonalLoop=1;jettySize=auto;html=1;exitX=0.5;exitY=1;exitDx=0;exitDy=0;" edge="1" parent="WIyWlLk6GJQsqaUBKTNV-1" source="2mogpoPURVk9opXqdCTS-19" target="2mogpoPURVk9opXqdCTS-21">
          <mxGeometry relative="1" as="geometry" />
        </mxCell>
        <mxCell id="2mogpoPURVk9opXqdCTS-54" style="edgeStyle=orthogonalEdgeStyle;rounded=0;orthogonalLoop=1;jettySize=auto;html=1;exitX=0.5;exitY=1;exitDx=0;exitDy=0;entryX=0.5;entryY=0;entryDx=0;entryDy=0;" edge="1" parent="WIyWlLk6GJQsqaUBKTNV-1" source="2mogpoPURVk9opXqdCTS-19" target="2mogpoPURVk9opXqdCTS-22">
          <mxGeometry relative="1" as="geometry" />
        </mxCell>
        <mxCell id="2mogpoPURVk9opXqdCTS-19" value="微信" style="rounded=1;whiteSpace=wrap;html=1;fontSize=12;glass=0;strokeWidth=1;shadow=0;" vertex="1" parent="WIyWlLk6GJQsqaUBKTNV-1">
          <mxGeometry y="1240" width="120" height="40" as="geometry" />
        </mxCell>
        <mxCell id="2mogpoPURVk9opXqdCTS-55" style="edgeStyle=orthogonalEdgeStyle;rounded=0;orthogonalLoop=1;jettySize=auto;html=1;exitX=0.5;exitY=1;exitDx=0;exitDy=0;entryX=0.5;entryY=0;entryDx=0;entryDy=0;" edge="1" parent="WIyWlLk6GJQsqaUBKTNV-1" source="2mogpoPURVk9opXqdCTS-20" target="2mogpoPURVk9opXqdCTS-23">
          <mxGeometry relative="1" as="geometry" />
        </mxCell>
        <mxCell id="2mogpoPURVk9opXqdCTS-56" style="edgeStyle=orthogonalEdgeStyle;rounded=0;orthogonalLoop=1;jettySize=auto;html=1;exitX=0.5;exitY=1;exitDx=0;exitDy=0;" edge="1" parent="WIyWlLk6GJQsqaUBKTNV-1" source="2mogpoPURVk9opXqdCTS-20" target="2mogpoPURVk9opXqdCTS-25">
          <mxGeometry relative="1" as="geometry" />
        </mxCell>
        <mxCell id="2mogpoPURVk9opXqdCTS-20" value="支付宝" style="rounded=1;whiteSpace=wrap;html=1;fontSize=12;glass=0;strokeWidth=1;shadow=0;" vertex="1" parent="WIyWlLk6GJQsqaUBKTNV-1">
          <mxGeometry x="440" y="1240" width="120" height="40" as="geometry" />
        </mxCell>
        <mxCell id="2mogpoPURVk9opXqdCTS-57" style="edgeStyle=orthogonalEdgeStyle;rounded=0;orthogonalLoop=1;jettySize=auto;html=1;exitX=0.5;exitY=1;exitDx=0;exitDy=0;" edge="1" parent="WIyWlLk6GJQsqaUBKTNV-1" source="2mogpoPURVk9opXqdCTS-21" target="2mogpoPURVk9opXqdCTS-26">
          <mxGeometry relative="1" as="geometry" />
        </mxCell>
        <mxCell id="2mogpoPURVk9opXqdCTS-21" value="小程序拉起微信支付&lt;br&gt;中转页pagesD/openMiniProgram/openCashier" style="rounded=1;whiteSpace=wrap;html=1;fontSize=12;glass=0;strokeWidth=1;shadow=0;" vertex="1" parent="WIyWlLk6GJQsqaUBKTNV-1">
          <mxGeometry x="-180" y="1360" width="210" height="60" as="geometry" />
        </mxCell>
        <mxCell id="2mogpoPURVk9opXqdCTS-58" style="edgeStyle=orthogonalEdgeStyle;rounded=0;orthogonalLoop=1;jettySize=auto;html=1;exitX=0.5;exitY=1;exitDx=0;exitDy=0;entryX=0.5;entryY=0;entryDx=0;entryDy=0;" edge="1" parent="WIyWlLk6GJQsqaUBKTNV-1" source="2mogpoPURVk9opXqdCTS-22" target="2mogpoPURVk9opXqdCTS-26">
          <mxGeometry relative="1" as="geometry" />
        </mxCell>
        <mxCell id="2mogpoPURVk9opXqdCTS-22" value="app拉起微信支付&lt;br&gt;H5与app通信" style="rounded=1;whiteSpace=wrap;html=1;fontSize=12;glass=0;strokeWidth=1;shadow=0;" vertex="1" parent="WIyWlLk6GJQsqaUBKTNV-1">
          <mxGeometry x="100" y="1360" width="120" height="40" as="geometry" />
        </mxCell>
        <mxCell id="2mogpoPURVk9opXqdCTS-59" style="edgeStyle=orthogonalEdgeStyle;rounded=0;orthogonalLoop=1;jettySize=auto;html=1;exitX=0.5;exitY=1;exitDx=0;exitDy=0;" edge="1" parent="WIyWlLk6GJQsqaUBKTNV-1" source="2mogpoPURVk9opXqdCTS-23">
          <mxGeometry relative="1" as="geometry">
            <mxPoint x="270" y="1600" as="targetPoint" />
          </mxGeometry>
        </mxCell>
        <mxCell id="2mogpoPURVk9opXqdCTS-23" value="小程序拉起支付宝支付&lt;br&gt;H5与支付宝小程序的通信&lt;br&gt;openCashier" style="rounded=1;whiteSpace=wrap;html=1;fontSize=12;glass=0;strokeWidth=1;shadow=0;" vertex="1" parent="WIyWlLk6GJQsqaUBKTNV-1">
          <mxGeometry x="330" y="1380" width="210" height="60" as="geometry" />
        </mxCell>
        <mxCell id="2mogpoPURVk9opXqdCTS-60" style="edgeStyle=orthogonalEdgeStyle;rounded=0;orthogonalLoop=1;jettySize=auto;html=1;exitX=0.5;exitY=1;exitDx=0;exitDy=0;entryX=0.5;entryY=0;entryDx=0;entryDy=0;" edge="1" parent="WIyWlLk6GJQsqaUBKTNV-1" source="2mogpoPURVk9opXqdCTS-25" target="2mogpoPURVk9opXqdCTS-26">
          <mxGeometry relative="1" as="geometry" />
        </mxCell>
        <mxCell id="2mogpoPURVk9opXqdCTS-25" value="app拉起支付宝支付&lt;br&gt;H5与app通信" style="rounded=1;whiteSpace=wrap;html=1;fontSize=12;glass=0;strokeWidth=1;shadow=0;" vertex="1" parent="WIyWlLk6GJQsqaUBKTNV-1">
          <mxGeometry x="603" y="1380" width="120" height="50" as="geometry" />
        </mxCell>
        <mxCell id="2mogpoPURVk9opXqdCTS-61" style="edgeStyle=orthogonalEdgeStyle;rounded=0;orthogonalLoop=1;jettySize=auto;html=1;exitX=0.5;exitY=1;exitDx=0;exitDy=0;entryX=0.5;entryY=0;entryDx=0;entryDy=0;" edge="1" parent="WIyWlLk6GJQsqaUBKTNV-1" source="2mogpoPURVk9opXqdCTS-26" target="2mogpoPURVk9opXqdCTS-27">
          <mxGeometry relative="1" as="geometry" />
        </mxCell>
        <mxCell id="2mogpoPURVk9opXqdCTS-26" value="支付SDK回调结果" style="rounded=1;whiteSpace=wrap;html=1;fontSize=12;glass=0;strokeWidth=1;shadow=0;" vertex="1" parent="WIyWlLk6GJQsqaUBKTNV-1">
          <mxGeometry x="210" y="1600" width="120" height="40" as="geometry" />
        </mxCell>
        <mxCell id="2mogpoPURVk9opXqdCTS-62" style="edgeStyle=orthogonalEdgeStyle;rounded=0;orthogonalLoop=1;jettySize=auto;html=1;exitX=0.5;exitY=1;exitDx=0;exitDy=0;entryX=0.5;entryY=0;entryDx=0;entryDy=0;" edge="1" parent="WIyWlLk6GJQsqaUBKTNV-1" source="2mogpoPURVk9opXqdCTS-27" target="2mogpoPURVk9opXqdCTS-28">
          <mxGeometry relative="1" as="geometry" />
        </mxCell>
        <mxCell id="2mogpoPURVk9opXqdCTS-27" value="支付结果页" style="rounded=1;whiteSpace=wrap;html=1;fontSize=12;glass=0;strokeWidth=1;shadow=0;" vertex="1" parent="WIyWlLk6GJQsqaUBKTNV-1">
          <mxGeometry x="210" y="1714" width="120" height="40" as="geometry" />
        </mxCell>
        <mxCell id="2mogpoPURVk9opXqdCTS-28" value="结果页接口调用&lt;br&gt;/apiEeopApp/mallBusinessApp/getPayOrderDetail" style="rounded=1;whiteSpace=wrap;html=1;fontSize=12;glass=0;strokeWidth=1;shadow=0;" vertex="1" parent="WIyWlLk6GJQsqaUBKTNV-1">
          <mxGeometry x="210" y="1830" width="120" height="40" as="geometry" />
        </mxCell>
        <mxCell id="2mogpoPURVk9opXqdCTS-36" style="edgeStyle=orthogonalEdgeStyle;rounded=0;orthogonalLoop=1;jettySize=auto;html=1;exitX=0.5;exitY=1;exitDx=0;exitDy=0;entryX=0.581;entryY=-0.042;entryDx=0;entryDy=0;entryPerimeter=0;" edge="1" parent="WIyWlLk6GJQsqaUBKTNV-1" source="2mogpoPURVk9opXqdCTS-4" target="2mogpoPURVk9opXqdCTS-7">
          <mxGeometry relative="1" as="geometry" />
        </mxCell>
        <mxCell id="2mogpoPURVk9opXqdCTS-39" style="edgeStyle=orthogonalEdgeStyle;rounded=0;orthogonalLoop=1;jettySize=auto;html=1;exitX=0.5;exitY=1;exitDx=0;exitDy=0;entryX=0.457;entryY=0.096;entryDx=0;entryDy=0;entryPerimeter=0;" edge="1" parent="WIyWlLk6GJQsqaUBKTNV-1" source="2mogpoPURVk9opXqdCTS-9" target="2mogpoPURVk9opXqdCTS-8">
          <mxGeometry relative="1" as="geometry" />
        </mxCell>
        <mxCell id="2mogpoPURVk9opXqdCTS-44" style="edgeStyle=orthogonalEdgeStyle;rounded=0;orthogonalLoop=1;jettySize=auto;html=1;exitX=0.5;exitY=1;exitDx=0;exitDy=0;entryX=0.573;entryY=0.006;entryDx=0;entryDy=0;entryPerimeter=0;" edge="1" parent="WIyWlLk6GJQsqaUBKTNV-1" source="2mogpoPURVk9opXqdCTS-15" target="2mogpoPURVk9opXqdCTS-17">
          <mxGeometry relative="1" as="geometry" />
        </mxCell>
      </root>
    </mxGraphModel>
  </diagram>
</mxfile>
